<?xml version="1.0" encoding="UTF-8"?>
<svg id="Layer_2" data-name="Layer 2" xmlns="http://www.w3.org/2000/svg" viewBox="0 0 460.5 460.5">
  <style>
    path { fill: #000000; }
    @media (prefers-color-scheme: dark) {
      path { fill: #ffffff; }
    }
  </style>
  <g id="Layer_1-2" data-name="Layer 1">
    <g>
      <g>
        <path d="M70.87,115.37v-7.2h145.86c3.93,11.45,7.2,23.22,10.47,34.67h-3.6c-32.05-33.69-38.92-27.47-81.76-27.47-8.83.32-16.68,1.95-16.68,12.75v91.25h41.21c10.79,0,18.64-12.1,18.64-24.86v-2.61h7.52v62.14h-7.52v-2.62c0-12.42-7.85-24.85-18.64-24.85h-41.21v91.24c0,11.13,7.85,12.42,16.68,12.76,42.85,0,49.71,6.54,81.76-27.47h3.6c-3.27,11.77-6.54,23.22-10.47,34.67H70.87v-7.2c10.47,0,21.91.32,21.91-13.08v-189.03c0-13.42-11.44-13.08-21.91-13.08Z"/>
        <path d="M342.98,186.33v-7.2h49.39v7.2c-10.47,0-16.68,1.97-24.86,8.83l-58.87,49.39,61.81,72.28c11.12,13.4,22.24,13.08,32.38,12.76v7.52h-69.66v-7.52c8.18-.34,13.74-1.97,4.58-12.76l-49.06-57.56v57.56c0,13.4,11.44,12.76,21.91,12.76v7.52h-76.2v-7.52c10.47,0,21.91.64,21.91-12.76v-181.18c0-9.82-6.21-12.42-13.74-12.76v-7.52c9.81,0,35.65.66,40.88-7.85h5.24v141.29l70.96-59.2c-3.93-3.28-10.14-3.28-16.68-3.28Z"/>
      </g>
      <path d="M230.25,460.5c-61.5,0-119.32-23.95-162.81-67.44S0,291.75,0,230.25,23.95,110.93,67.44,67.44,168.75,0,230.25,0s119.32,23.95,162.81,67.44,67.44,101.31,67.44,162.81-23.95,119.32-67.44,162.81-101.31,67.44-162.81,67.44ZM230.25,17C112.66,17,17,112.66,17,230.25s95.66,213.25,213.25,213.25,213.25-95.66,213.25-213.25S347.83,17,230.25,17Z"/>
    </g>
  </g>
</svg>