<?xml version="1.0" encoding="UTF-8"?>
<svg id="Layer_2" data-name="Layer 2" xmlns="http://www.w3.org/2000/svg" viewBox="0 0 1072.67 339.43">
  <defs>
    <style>
      .cls-1 {
        fill: #fff;
      }

      .cls-2 {
        fill: #de0000;
      }
    </style>
  </defs>
  <g id="Layer_1-2" data-name="Layer 1">
    <path d="M0,0h936.23c75.3,0,136.44,61.14,136.44,136.44v202.99H136.44C61.14,339.43,0,278.29,0,202.99V0h0Z"/>
    <g>
      <g>
        <path class="cls-1" d="M107.09,228.06v-116.66c0-8.34-1.41-13.6-4.44-16.54-1.92-1.84-4.47-2.73-7.8-2.73h-2.63v-5.15h113.4v30.1h-5.15l-.48-1.15c-6.22-15.24-17.83-21.73-38.81-21.73h-28.44v64.95h21.54c17.27,0,25.71-3.56,30.13-12.71l1-2.13h5.15v38.89h-5.13l-1.03-2.34c-4.41-10.41-12.85-14.46-30.11-14.46h-21.54v78.91h33.47c19.2,0,29.68-5.38,36.18-18.59.08-.17,1.82-4.09,2.97-6.68l.25-.56h5.15v33.05h-118.53v-5.15h2.57c3.36,0,5.94-.9,7.9-2.75,3-2.97,4.4-8.24,4.4-16.56Z"/>
        <g>
          <path class="cls-2" d="M378.24,246.72c-11.08-2.08-23.62-15.96-30.37-23.42l-.65-.71c-1.23-1.38-2.42-2.69-3.4-3.71l-54.16-63.68-17.52,17.42.38.46.05.06c5.71,6.79,11.6,13.82,17.45,20.66,4.66,5.43,9.11,10.71,14.02,16.64l5.09,6.11c4.85,5.81,10.86,12.67,18.92,21.62,6.01,6.62,11.77,10.89,17.1,12.69,2.24.78,4.66,1.3,7.01,1.49,1.55.12,6.24.19,14.74.19,5.23,0,10.35-.02,12.55-.03h2.97v-4.99l-4.17-.78Z"/>
          <path class="cls-1" d="M268.49,244.63c-3.01-2.92-4.42-8.19-4.42-16.58v-47.45l.05-.05.07-7.46,39.07-38.85v.03l14.8-15.15c4.2-4.31,7.24-7.42,7.66-7.85,13.15-13.63,22.01-19.19,30.57-19.19h2.42v-5.14h-36.98v5.14h1.95c1.31,0,3.61.22,4.25,1.61,1.06,2.37-2.53,7.73-10.66,15.93l-53.19,53.53v-51.76c0-8.35,1.4-13.62,4.41-16.58,1.85-1.79,4.51-2.73,7.69-2.73h2.71v-5.15h-55.26v5.15h2.6c3.35,0,5.9.88,7.8,2.7,3.01,2.96,4.42,8.22,4.42,16.58v116.68c0,8.38-1.4,13.66-4.41,16.57-1.94,1.85-4.57,2.71-8.32,2.71h-2.1v5.15h55.26v-5.15h-2.63c-3.38,0-5.92-.88-7.76-2.7Z"/>
        </g>
      </g>
      <path class="cls-1" d="M506.95,92.12h-2.63v-5.15h38.1v5.15h-2.66c-3.51,0-6.02.84-7.9,2.63-2.48,2.33-4.12,8.69-4.28,16.59l-.02,141.17h-10.39l-9.98-14.19-94.92-129.43v119.24c0,8.23,1.41,13.43,4.44,16.38,1.98,1.92,4.53,2.86,7.8,2.86h2.6v5.15h-38.01v-5.15h1.85c.13,0,.25,0,.37,0,3.63,0,6.24-.87,8.19-2.74,3-2.95,4.41-8.21,4.41-16.57v-116.66c0-8.35-1.4-13.62-4.41-16.58-1.93-1.84-4.41-2.7-7.8-2.7h-2.6v-5.15h37.45l.56.74,92.13,126.33-.07-102.69c0-8.3-1.4-13.55-4.41-16.51-1.89-1.86-4.37-2.73-7.8-2.73Z"/>
      <path class="cls-1" d="M578.77,106.12c15.78-14.04,34.91-21.16,56.86-21.16s40.97,8.06,56.93,23.97c15.98,15.87,24.09,36,24.09,59.85s-8.16,45.13-24.27,61.33c-16.1,16.17-35.87,24.36-58.74,24.36s-42.84-8-58.56-23.79c-15.75-15.8-23.73-36.52-23.73-61.57s9.22-46.82,27.41-63ZM596.35,108.73c-11.46,13.51-17.27,33.62-17.27,59.78s6.03,47.73,17.91,62.11c9.12,11.04,21.38,16.64,36.42,16.64,15.98,0,29.4-6.12,39.87-18.19,10.41-12.05,15.69-31.27,15.69-57.15,0-28-5.84-49.26-17.36-63.19-9.2-10.94-22.09-16.49-38.32-16.49-15.31,0-27.74,5.55-36.94,16.49Z"/>
      <path class="cls-1" d="M756.09,95.52c-2.45,3.47-2.14,9.21.89,17.05l45.47,111.23,38.6-110.39c2.35-8.76,2.25-14.39-.33-17.72-1.84-2.4-5.1-3.57-9.97-3.57h-3.65v-5.15h44.79v5.15h-3.54c-9.28,0-13.83,7.38-17.8,18.45l-49.47,141.94h-13.25l-.48-1.15-57.56-141.12c-5.87-12.87-10.97-18.12-17.58-18.12h-2.03v-5.15h57.1v5.15h-3.02c-3.81,0-6.56,1.14-8.17,3.39Z"/>
      <path class="cls-1" d="M883.9,252.52h-44.43v-5.15h2.38c8.5,0,14.57-5.72,19.69-18.55l52.57-141.85h10.97l.49,1.1,61.21,140.87c4.87,10.5,10,15.98,16.63,17.74.37.11.79.19,1.3.27.88.13,3.29.43,4.05.43h.86s0,5.14,0,5.14h-61.74v-5.15h1.17c2.38,0,4.21-.03,4.67-.09,2.95-.37,5-1.39,6.24-3.1,1.87-2.63,1.68-6.92-.6-13.1l-17.18-40.92h-57.51l-13.14,36.14c-2.79,8.54-2.94,14.07-.46,17.38,1.84,2.51,5.07,3.68,10.17,3.68h2.66v5.15ZM939.15,182.95l-27.8-66.01-23.97,66.01h51.78Z"/>
    </g>
  </g>
</svg>