<?xml version="1.0" encoding="UTF-8"?>
<svg id="Layer_2" data-name="Layer 2" xmlns="http://www.w3.org/2000/svg" viewBox="0 0 1072.67 339.43">
  <defs>
    <style>
      .cls-1 {
        fill: #fff;
      }
    </style>
  </defs>
  <g id="Layer_1-2" data-name="Layer 1">
    <rect width="1072.67" height="339.43"/>
    <g>
      <g>
        <path class="cls-1" d="M40.74,46.05v-7.2h145.86c3.93,11.45,7.2,23.22,10.47,34.67h-3.6c-32.05-33.69-38.92-27.47-81.76-27.47-8.83.32-16.68,1.95-16.68,12.75v91.25h41.21c10.79,0,18.64-12.1,18.64-24.86v-2.61h7.52v62.14h-7.52v-2.62c0-12.42-7.85-24.85-18.64-24.85h-41.21v91.24c0,11.13,7.85,12.42,16.68,12.76,42.85,0,49.71,6.54,81.76-27.47h3.6c-3.27,11.77-6.54,23.22-10.47,34.67H40.74v-7.2c10.47,0,21.91.32,21.91-13.08V59.13c0-13.42-11.44-13.08-21.91-13.08Z"/>
        <path class="cls-1" d="M312.85,117.01v-7.2h49.39v7.2c-10.47,0-16.68,1.97-24.86,8.83l-58.87,49.39,61.81,72.28c11.12,13.4,22.24,13.08,32.38,12.76v7.52h-69.66v-7.52c8.18-.34,13.74-1.97,4.58-12.76l-49.06-57.56v57.56c0,13.4,11.44,12.76,21.91,12.76v7.52h-76.2v-7.52c10.47,0,21.91.64,21.91-12.76V66.32c0-9.82-6.21-12.42-13.74-12.76v-7.52c9.81,0,35.65.66,40.88-7.85h5.24v141.29l70.96-59.2c-3.93-3.28-10.14-3.28-16.68-3.28Z"/>
        <path class="cls-1" d="M400.19,137.94c0-9.8-6.22-12.1-13.74-12.76v-7.52c9.81,0,35.64.66,40.88-7.85h5.23v23.55c14.72-15.7,27.15-23.55,49.71-23.55,24.86,0,41.86,9.82,41.86,41.54v96.15c0,13.4,11.45,13.08,21.91,13.08v7.2h-76.2v-7.2c10.47,0,21.91.32,21.91-13.08v-107.6c0-30.09-43.49-27.47-59.2,11.11v96.48c0,13.4,11.45,13.08,21.91,13.08v7.2h-76.2v-7.2c10.47,0,21.91.32,21.91-13.08v-109.56Z"/>
        <path class="cls-1" d="M707.63,188.63c0,48.08-31.07,79.15-78.82,79.15s-79.14-31.07-79.14-79.15,31.07-78.82,79.14-78.82,78.82,31.07,78.82,78.82ZM628.81,117.01c-28.45,0-47.09,28.13-47.09,71.62s18.64,71.95,47.09,71.95,46.77-28.13,46.77-71.95-18.64-71.62-46.77-71.62Z"/>
        <path class="cls-1" d="M840.76,125.18c2.29-7.2-9.16-7.84-15.37-8.17v-7.2h46.77v7.2c-7.2,0-18.97-.32-23.23,6.54l-46.44,144.23h-32.38l-44.48-137.69c-4.25-13.4-15.37-13.08-25.84-13.08v-7.2h73.59v7.2c-9.48,0-19.29.66-15.05,12.76l40.56,126.56,37.94-118.06,3.93-13.09Z"/>
        <path class="cls-1" d="M897.02,150.05c-8.51-1.63-14.06-11.13-9.48-19.62,7.85-14.39,42.84-20.61,56.9-20.61,36.31,0,71.63,6.54,69.01,64.1v73.59c0,13.4,10.47,12.76,20.28,12.76v7.52h-51.02v-24.85c-9.81,15.37-27.47,24.85-55.27,24.85-33.03,0-63.12-23.22-63.12-52s25.51-52,66.06-52c24.86,0,41.54,6.86,52.33,22.9.98-87.98-71.62-74.58-69.66-50.05.66,9.48-7.84,14.73-16.02,13.42ZM938.89,171.3c-27.8,0-44.48,18.32-44.48,44.48s16.68,44.48,44.48,44.48c22.24.32,40.55-15.38,43.82-37.62v-13.74c-3.27-22.23-21.58-37.93-43.82-37.61Z"/>
      </g>
      <rect class="cls-1" x="38.94" y="291.55" width="994.79" height="9.68"/>
      <rect class="cls-1" x="271.48" y="42.85" width="762.25" height="9.68"/>
    </g>
  </g>
</svg>