<?xml version="1.0" encoding="UTF-8"?>
<svg id="Layer_2" data-name="Layer 2" xmlns="http://www.w3.org/2000/svg" viewBox="0 0 382.41 339.43">
  <defs>
    <style>
      .cls-1 {
        fill: #fff;
      }

      .cls-2 {
        fill: #de0000;
      }
    </style>
  </defs>
  <g id="Layer_1-2" data-name="Layer 1">
    <path d="M0,0h246.75c74.87,0,135.66,60.79,135.66,135.66v203.77h-246.75C60.79,339.43,0,278.64,0,203.77V0h0Z"/>
    <g>
      <path class="cls-1" d="M60.98,228.04v-116.66c0-8.34-1.41-13.6-4.44-16.54-1.92-1.84-4.47-2.73-7.8-2.73h-2.63v-5.15h113.4v30.1h-5.15l-.48-1.15c-6.22-15.24-17.83-21.73-38.81-21.73h-28.44v64.95h21.54c17.27,0,25.71-3.56,30.13-12.71l1-2.13h5.15v38.89h-5.13l-1.03-2.34c-4.41-10.41-12.85-14.46-30.11-14.46h-21.54v78.91h33.47c19.2,0,29.68-5.38,36.18-18.59.08-.17,1.82-4.09,2.97-6.68l.25-.56h5.15v33.05H46.11v-5.15h2.57c3.36,0,5.94-.9,7.9-2.75,3-2.97,4.4-8.24,4.4-16.56Z"/>
      <g>
        <path class="cls-2" d="M332.13,246.7c-11.08-2.08-23.62-15.96-30.37-23.42l-.65-.71c-1.23-1.38-2.42-2.69-3.4-3.71l-54.16-63.68-17.52,17.42.38.46.05.06c5.71,6.79,11.6,13.82,17.45,20.66,4.66,5.43,9.11,10.71,14.02,16.64l5.09,6.11c4.85,5.81,10.86,12.67,18.92,21.62,6.01,6.62,11.77,10.89,17.1,12.69,2.24.78,4.66,1.3,7.01,1.49,1.55.12,6.24.19,14.74.19,5.23,0,10.35-.02,12.55-.03h2.97v-4.99l-4.17-.78Z"/>
        <path class="cls-1" d="M222.39,244.62c-3.01-2.92-4.42-8.19-4.42-16.58v-47.45l.05-.05.07-7.46,39.07-38.85v.03l14.8-15.15c4.2-4.31,7.24-7.42,7.66-7.85,13.15-13.63,22.01-19.19,30.57-19.19h2.42v-5.14h-36.98v5.14h1.95c1.31,0,3.61.22,4.25,1.61,1.06,2.37-2.53,7.73-10.66,15.93l-53.19,53.53v-51.76c0-8.35,1.4-13.62,4.41-16.58,1.85-1.79,4.51-2.73,7.69-2.73h2.71v-5.15h-55.26v5.15h2.6c3.35,0,5.9.88,7.8,2.7,3.01,2.96,4.42,8.22,4.42,16.58v116.68c0,8.38-1.4,13.66-4.41,16.57-1.94,1.85-4.57,2.71-8.32,2.71h-2.1v5.15h55.26v-5.15h-2.63c-3.38,0-5.92-.88-7.76-2.7Z"/>
      </g>
    </g>
  </g>
</svg>